<svg width="26" height="18" viewBox="0 0 26 18" fill="none" xmlns="http://www.w3.org/2000/svg">
<path d="M20.5833 6.83347H19.695L17.8533 1.7635C17.7009 1.34544 17.4239 0.984196 17.0597 0.728496C16.6955 0.472796 16.2617 0.334926 15.8167 0.333496H14.0833C13.4875 0.333496 13 0.820996 13 1.41683C13 2.01266 13.4875 2.50016 14.0833 2.50016H15.8167L17.3983 6.83347H12.1875L11.7975 5.75017H11.895C12.4908 5.75017 12.9783 5.26267 12.9783 4.66687C12.9783 4.07097 12.4908 3.5835 11.895 3.5835H8.6667C8.0708 3.5835 7.5833 4.07097 7.5833 4.66687C7.5833 5.26267 8.0708 5.75017 8.6667 5.75017H9.4792L11.4508 11.1669H10.725C10.2483 8.75097 8.2225 6.96347 5.6875 6.84437C2.65417 6.69267 0 9.21687 0 12.2502C0 15.2835 2.38333 17.6669 5.41667 17.6669C8.0817 17.6669 10.2375 15.836 10.725 13.3335H15.275C15.7517 15.7494 17.7775 17.5369 20.3125 17.656C23.3458 17.7969 26 15.2835 26 12.2394C26 9.21687 23.6167 6.83347 20.5833 6.83347ZM6.5 13.3335H8.4717C8.0167 14.666 6.73833 15.5869 5.2 15.4894C3.58583 15.3919 2.2425 14.0269 2.16667 12.4019C2.09083 10.506 3.5425 9.00017 5.41667 9.00017C6.8575 9.00017 8.0383 9.89937 8.4717 11.1669H6.5C5.90417 11.1669 5.41667 11.6544 5.41667 12.2502C5.41667 12.846 5.90417 13.3335 6.5 13.3335ZM15.275 11.1669H13.7583L12.9675 9.00017H16.25C15.7733 9.62847 15.4267 10.3544 15.275 11.1669ZM20.4533 15.5002C18.785 15.4352 17.3767 14.016 17.3333 12.3369C17.3117 11.2969 17.7558 10.3869 18.4708 9.78017L19.1425 11.6219C19.3483 12.1852 19.9658 12.4777 20.5292 12.2719C21.0925 12.066 21.385 11.4485 21.1792 10.8852L20.4967 9.01097L20.5075 9.00017C20.9418 8.98537 21.3747 9.05867 21.7799 9.21587C22.1851 9.37297 22.5543 9.61057 22.8651 9.91427C23.1759 10.2181 23.422 10.5816 23.5884 10.9831C23.7548 11.3846 23.8381 11.8156 23.8333 12.2502C23.8333 14.1135 22.3383 15.5652 20.4533 15.5002Z" fill="url(#paint0_linear_172_4)"/>
<defs>
<linearGradient id="paint0_linear_172_4" x1="13" y1="0.333496" x2="13" y2="17.6669" gradientUnits="userSpaceOnUse">
<stop stop-color="#FFB60D"/>
<stop offset="1" stop-color="#E59317"/>
</linearGradient>
</defs>
</svg>
