<svg width="32" height="32" viewBox="0 0 32 32" fill="none" xmlns="http://www.w3.org/2000/svg">
<path d="M25.3333 9.3335H24.24L21.9733 3.0935C21.7857 2.57898 21.4448 2.13437 20.9965 1.81966C20.5483 1.50495 20.0143 1.33527 19.4667 1.3335H17.3333C16.6 1.3335 16 1.9335 16 2.66684C16 3.40017 16.6 4.00017 17.3333 4.00017H19.4667L21.4133 9.3335H15L14.52 8.00017H14.64C15.3733 8.00017 15.9733 7.40017 15.9733 6.66684C15.9733 5.9335 15.3733 5.3335 14.64 5.3335H10.6667C9.93333 5.3335 9.33333 5.9335 9.33333 6.66684C9.33333 7.40017 9.93333 8.00017 10.6667 8.00017H11.6667L14.0933 14.6668H13.2C12.6133 11.6935 10.12 9.4935 7 9.34684C3.26667 9.16017 0 12.2668 0 16.0001C0 19.7335 2.93333 22.6668 6.66667 22.6668C9.94667 22.6668 12.6 20.4135 13.2 17.3335H18.8C19.3867 20.3068 21.88 22.5068 25 22.6535C28.7333 22.8268 32 19.7335 32 15.9868C32 12.2668 29.0667 9.3335 25.3333 9.3335ZM8 17.3335H10.4267C9.86667 18.9735 8.29333 20.1068 6.4 19.9868C4.41333 19.8668 2.76 18.1868 2.66667 16.1868C2.57333 13.8535 4.36 12.0001 6.66667 12.0001C8.44 12.0001 9.89333 13.1068 10.4267 14.6668H8C7.26667 14.6668 6.66667 15.2668 6.66667 16.0001C6.66667 16.7335 7.26667 17.3335 8 17.3335ZM18.8 14.6668H16.9333L15.96 12.0001H20C19.4133 12.7735 18.9867 13.6668 18.8 14.6668ZM25.1733 20.0001C23.12 19.9201 21.3867 18.1735 21.3333 16.1068C21.3067 14.8268 21.8533 13.7068 22.7333 12.9601L23.56 15.2268C23.8133 15.9201 24.5733 16.2801 25.2667 16.0268C25.96 15.7735 26.32 15.0135 26.0667 14.3201L25.2267 12.0135L25.24 12.0001C25.7746 11.9819 26.3073 12.0722 26.806 12.2656C27.3047 12.4589 27.7591 12.7514 28.1416 13.1252C28.5242 13.4991 28.827 13.9465 29.0319 14.4407C29.2367 14.9348 29.3392 15.4653 29.3333 16.0001C29.3333 18.2935 27.4933 20.0801 25.1733 20.0001ZM14.6667 26.6668H9.33333L17.3333 30.6668V28.0001H22.6667L14.6667 24.0001V26.6668Z" fill="url(#paint0_linear_136_2)"/>
<defs>
<linearGradient id="paint0_linear_136_2" x1="16" y1="1.3335" x2="16" y2="30.6668" gradientUnits="userSpaceOnUse">
<stop stop-color="#FFBF00"/>
<stop offset="1" stop-color="#F2A50C"/>
</linearGradient>
</defs>
</svg>
