<svg width="18" height="18" viewBox="0 0 18 18" fill="none" xmlns="http://www.w3.org/2000/svg">
<path d="M8.99999 0.666992C4.41699 0.666992 0.666992 4.41699 0.666992 8.99999C0.666992 13.583 4.41699 17.333 8.99999 17.333C13.583 17.333 17.333 13.583 17.333 8.99999C17.333 4.41699 13.583 0.666992 8.99999 0.666992ZM11.958 12.167L8.55799 10.075C8.43558 10.0019 8.33432 9.8981 8.26418 9.774C8.19404 9.6498 8.15744 9.5096 8.15799 9.367V5.45799C8.16238 5.29206 8.23086 5.13428 8.34906 5.01775C8.46727 4.90122 8.62602 4.835 8.79199 4.83299C8.95735 4.8343 9.1156 4.90057 9.2325 5.0175C9.3494 5.13442 9.4157 5.29264 9.417 5.45799V9.166L12.617 11.091C12.917 11.275 13.017 11.666 12.833 11.967C12.7425 12.1084 12.6001 12.2087 12.4364 12.2461C12.2727 12.2835 12.1009 12.2551 11.958 12.167Z" fill="url(#paint0_linear_170_3)"/>
<defs>
<linearGradient id="paint0_linear_170_3" x1="8.99999" y1="0.666992" x2="8.99999" y2="17.333" gradientUnits="userSpaceOnUse">
<stop stop-color="#FFBF00"/>
<stop offset="1" stop-color="#F2A50C"/>
</linearGradient>
</defs>
</svg>
