<svg width="14" height="18" viewBox="0 0 14 18" fill="none" xmlns="http://www.w3.org/2000/svg">
<path d="M7 0.666992C3.50001 0.666992 0.333008 3.34999 0.333008 7.49999C0.333008 10.15 2.37501 13.267 6.45001 16.858C6.604 16.9909 6.80061 17.064 7.004 17.064C7.2074 17.064 7.404 16.9909 7.558 16.858C11.625 13.267 13.667 10.15 13.667 7.49999C13.667 3.34999 10.5 0.666992 7 0.666992ZM7 8.99999C6.08301 8.99999 5.33301 8.24999 5.33301 7.33299C5.33301 6.41599 6.08301 5.66599 7 5.66599C7.917 5.66599 8.667 6.41599 8.667 7.33299C8.667 8.24999 7.917 8.99999 7 8.99999Z" fill="url(#paint0_linear_167_13)"/>
<defs>
<linearGradient id="paint0_linear_167_13" x1="7" y1="0.666992" x2="7" y2="17.064" gradientUnits="userSpaceOnUse">
<stop stop-color="#FFBF00"/>
<stop offset="1" stop-color="#F2A50C"/>
</linearGradient>
</defs>
</svg>
