<svg width="30" height="30" viewBox="0 0 30 30" fill="none" xmlns="http://www.w3.org/2000/svg">
<path d="M14.9997 9.66658C12.053 9.66658 9.6663 12.0533 9.6663 14.9999C9.6663 17.9466 12.053 20.3333 14.9997 20.3333C17.9463 20.3333 20.333 17.9466 20.333 14.9999C20.333 12.0533 17.9463 9.66658 14.9997 9.66658ZM26.9197 13.6666C26.6177 10.9628 25.4052 8.44197 23.4814 6.51818C21.5576 4.59439 19.0368 3.38194 16.333 3.07992V1.66659C16.333 0.933252 15.733 0.333252 14.9997 0.333252C14.2663 0.333252 13.6663 0.933252 13.6663 1.66659V3.07992C10.9625 3.38194 8.44172 4.59439 6.51793 6.51818C4.59414 8.44197 3.38169 10.9628 3.07967 13.6666H1.66634C0.933008 13.6666 0.333008 14.2666 0.333008 14.9999C0.333008 15.7333 0.933008 16.3333 1.66634 16.3333H3.07967C3.38169 19.0371 4.59414 21.5579 6.51793 23.4817C8.44172 25.4055 10.9625 26.6179 13.6663 26.9199V28.3333C13.6663 29.0666 14.2663 29.6666 14.9997 29.6666C15.733 29.6666 16.333 29.0666 16.333 28.3333V26.9199C19.0368 26.6179 21.5576 25.4055 23.4814 23.4817C25.4052 21.5579 26.6177 19.0371 26.9197 16.3333H28.333C29.0663 16.3333 29.6663 15.7333 29.6663 14.9999C29.6663 14.2666 29.0663 13.6666 28.333 13.6666H26.9197ZM14.9997 24.3333C9.8397 24.3333 5.66634 20.1599 5.66634 14.9999C5.66634 9.83988 9.8397 5.66659 14.9997 5.66659C20.1597 5.66659 24.333 9.83988 24.333 14.9999C24.333 20.1599 20.1597 24.3333 14.9997 24.3333Z" fill="url(#paint0_linear_137_7)"/>
<defs>
<linearGradient id="paint0_linear_137_7" x1="14.9997" y1="0.333252" x2="14.9997" y2="29.6666" gradientUnits="userSpaceOnUse">
<stop stop-color="#FFBF00"/>
<stop offset="1" stop-color="#F2A50C"/>
</linearGradient>
</defs>
</svg>
