<svg width="44" height="44" viewBox="0 0 44 44" fill="none" xmlns="http://www.w3.org/2000/svg">
<path d="M20.4 43.8V40.05C15.8333 39.5833 12.0333 37.8333 9 34.8C5.96667 31.7667 4.21667 27.9667 3.75 23.4H0V20.4H3.75C4.21667 15.8333 5.96667 12.0333 9 9C12.0333 5.96667 15.8333 4.21667 20.4 3.75V0H23.4V3.75C27.9667 4.21667 31.7667 5.96667 34.8 9C37.8333 12.0333 39.5833 15.8333 40.05 20.4H43.8V23.4H40.05C39.5833 27.9667 37.8333 31.7667 34.8 34.8C31.7667 37.8333 27.9667 39.5833 23.4 40.05V43.8H20.4ZM21.9 37.1C26.0667 37.1 29.6417 35.6083 32.625 32.625C35.6083 29.6417 37.1 26.0667 37.1 21.9C37.1 17.7333 35.6083 14.1583 32.625 11.175C29.6417 8.19167 26.0667 6.7 21.9 6.7C17.7333 6.7 14.1583 8.19167 11.175 11.175C8.19167 14.1583 6.7 17.7333 6.7 21.9C6.7 26.0667 8.19167 29.6417 11.175 32.625C14.1583 35.6083 17.7333 37.1 21.9 37.1ZM21.9 29.4C19.8 29.4 18.025 28.675 16.575 27.225C15.125 25.775 14.4 24 14.4 21.9C14.4 19.8 15.125 18.025 16.575 16.575C18.025 15.125 19.8 14.4 21.9 14.4C24 14.4 25.775 15.125 27.225 16.575C28.675 18.025 29.4 19.8 29.4 21.9C29.4 24 28.675 25.775 27.225 27.225C25.775 28.675 24 29.4 21.9 29.4ZM21.9 26.4C23.1667 26.4 24.2333 25.9667 25.1 25.1C25.9667 24.2333 26.4 23.1667 26.4 21.9C26.4 20.6333 25.9667 19.5667 25.1 18.7C24.2333 17.8333 23.1667 17.4 21.9 17.4C20.6333 17.4 19.5667 17.8333 18.7 18.7C17.8333 19.5667 17.4 20.6333 17.4 21.9C17.4 23.1667 17.8333 24.2333 18.7 25.1C19.5667 25.9667 20.6333 26.4 21.9 26.4Z" fill="#FFBB00"/>
</svg>
