<svg width="48" height="44" viewBox="0 0 48 44" fill="none" xmlns="http://www.w3.org/2000/svg">
<path d="M9.7 32C7 32 4.70833 31.05 2.825 29.15C0.941667 27.25 0 24.95 0 22.25C0 19.55 0.950633 17.2583 2.8519 15.375C4.75313 13.4917 7.0525 12.55 9.75 12.55C12.1167 12.55 14.1917 13.3083 15.975 14.825C17.7583 16.3417 18.8333 18.2667 19.2 20.6H21.75L17.65 9H14V6H23.4V9H20.8L22.1 12.55H33.2L29.65 3H24.4V0H29.35C30.15 0 30.825 0.183333 31.375 0.55C31.925 0.916667 32.3333 1.46667 32.6 2.2L36.4 12.55H38.3C40.9837 12.55 43.2713 13.4872 45.1628 15.3617C47.0543 17.2362 48 19.5032 48 22.1627C48 24.8542 47.0623 27.1667 45.187 29.1C43.3117 31.0333 41.016 32 38.3 32C35.9133 32 33.8166 31.2 32.0099 29.6C30.2033 28 29.1 26 28.7 23.6H19.2C18.8333 26 17.7583 28 15.975 29.6C14.1917 31.2 12.1 32 9.7 32ZM9.7 29C11.3 29 12.6917 28.4833 13.875 27.45C15.0583 26.4167 15.85 25.1333 16.25 23.6H10.3V20.6H16.25C15.85 19.1 15.05 17.8833 13.85 16.95C12.65 16.0167 11.2833 15.55 9.75 15.55C7.88333 15.55 6.29167 16.2 4.975 17.5C3.65833 18.8 3 20.3833 3 22.25C3 24.125 3.65 25.7188 4.95 27.0313C6.25 28.3438 7.83333 29 9.7 29ZM24.95 20.6H28.75C28.8833 19.8333 29.1417 18.9833 29.525 18.05C29.9083 17.1167 30.4333 16.2833 31.1 15.55H23.15L24.95 20.6ZM38.3 29C40.1667 29 41.75 28.3438 43.05 27.0313C44.35 25.7188 45 24.125 45 22.25C45 20.3833 44.35 18.8 43.05 17.5C41.75 16.2 40.1667 15.55 38.3 15.55H37.5L39.45 21.2L36.65 22.15L34.5 16.55C33.5333 17.1167 32.8083 17.9167 32.325 18.95C31.8417 19.9833 31.6 21.0833 31.6 22.25C31.6 24.125 32.25 25.7188 33.55 27.0313C34.85 28.3438 36.4333 29 38.3 29ZM25.85 44L14.7 38.35H22.05V34.55L33.4 40.25H25.85V44Z" fill="#FFBB00"/>
</svg>
